ply
format ascii 1.0
comment Created by Blender 2.79 (sub 0) - www.blender.org, source file: ''
element vertex 240
property float x
property float y
property float z
property float nx
property float ny
property float nz
property uchar red
property uchar green
property uchar blue
element face 80
property list uchar uint vertex_indices
end_header
-0.118832 0.078257 -8.999792 0.102381 -0.315090 -0.943524 255 255 255
3.709072 -2.702846 -7.655680 0.102381 -0.315090 -0.943524 17 255 178
-1.580932 -4.421700 -7.655683 0.102381 -0.315090 -0.943524 1 255 246
6.393633 -4.653271 -4.024768 0.700224 -0.268032 -0.661699 178 2 255
3.709072 -2.702846 -7.655680 0.700224 -0.268032 -0.661699 17 255 178
7.536999 0.078257 -4.731416 0.700224 -0.268032 -0.661699 8 255 39
-0.118832 0.078257 -8.999792 -0.268034 -0.194736 -0.943523 255 255 255
-1.580932 -4.421700 -7.655683 -0.268034 -0.194736 -0.943523 1 255 246
-4.850400 0.078257 -7.655658 -0.268034 -0.194736 -0.943523 255 255 255
-0.118832 0.078257 -8.999792 -0.268034 0.194736 -0.943523 255 255 255
-4.850400 0.078257 -7.655658 -0.268034 0.194736 -0.943523 255 255 255
-1.580932 4.578215 -7.655683 -0.268034 0.194736 -0.943523 248 255 0
-0.118832 0.078257 -8.999792 0.102381 0.315090 -0.943524 255 255 255
-1.580932 4.578215 -7.655683 0.102381 0.315090 -0.943524 248 255 0
3.709072 2.859360 -7.655680 0.102381 0.315090 -0.943524 8 4 255
6.393633 -4.653271 -4.024768 0.904989 -0.268032 -0.330385 178 2 255
7.536999 0.078257 -4.731416 0.904989 -0.268032 -0.330385 8 255 39
8.440688 -2.702857 0.000208 0.904989 -0.268032 -0.330385 248 255 1
-2.606324 -7.577586 -4.024771 0.024747 -0.943521 -0.330386 255 255 255
2.246987 -7.202847 -4.731431 0.024747 -0.943521 -0.330386 255 255 255
-0.118832 -8.921741 0.000208 0.024747 -0.943521 -0.330386 255 255 255
-8.168669 0.078257 -4.024733 -0.889697 -0.315095 -0.330385 4 255 36
-6.312537 -4.421715 -4.731419 -0.889697 -0.315095 -0.330385 255 255 255
-8.678353 -2.702857 0.000208 -0.889697 -0.315095 -0.330385 3 255 246
-2.606324 7.734100 -4.024771 -0.574602 0.748784 -0.330388 1 255 246
-6.312537 4.578229 -4.731419 -0.574602 0.748784 -0.330388 255 255 255
-5.408903 7.359407 0.000208 -0.574602 0.748784 -0.330388 255 255 255
6.393633 4.809785 -4.024768 0.534576 0.777865 -0.330387 130 255 43
2.246987 7.359362 -4.731431 0.534576 0.777865 -0.330387 255 255 255
5.171238 7.359407 0.000208 0.534576 0.777865 -0.330387 227 164 255
6.393633 -4.653271 -4.024768 0.802609 -0.583126 -0.125627 178 2 255
8.440688 -2.702857 0.000208 0.802609 -0.583126 -0.125627 248 255 1
5.171238 -7.202893 0.000208 0.802609 -0.583126 -0.125627 120 255 26
-2.606324 -7.577586 -4.024771 -0.306569 -0.943522 -0.125629 255 255 255
-0.118832 -8.921741 0.000208 -0.306569 -0.943522 -0.125629 255 255 255
-5.408903 -7.202893 0.000208 -0.306569 -0.943522 -0.125629 255 138 0
-8.168669 0.078257 -4.024733 -0.992077 -0.000000 -0.125628 4 255 36
-8.678353 -2.702857 0.000208 -0.992077 -0.000000 -0.125628 3 255 246
-8.678353 2.859371 0.000208 -0.992077 -0.000000 -0.125628 255 145 15
-2.606324 7.734100 -4.024771 -0.306569 0.943521 -0.125629 1 255 246
-5.408903 7.359407 0.000208 -0.306569 0.943521 -0.125629 255 255 255
-0.118832 9.078257 0.000208 -0.306569 0.943521 -0.125629 255 255 255
6.393633 4.809785 -4.024768 0.802609 0.583126 -0.125627 130 255 43
5.171238 7.359407 0.000208 0.802609 0.583126 -0.125627 227 164 255
8.440688 2.859371 0.000208 0.802609 0.583126 -0.125627 255 255 255
2.368660 -7.577586 4.025187 0.408946 -0.628425 0.661698 5 255 246
6.074872 -4.421715 4.731833 0.408946 -0.628425 0.661698 255 255 255
1.343268 -4.421700 7.656097 0.408946 -0.628425 0.661698 255 255 255
-6.631298 -4.653271 4.025184 -0.471300 -0.583122 0.661699 255 255 255
-2.484652 -7.202847 4.731847 -0.471300 -0.583122 0.661699 255 255 255
-3.946737 -2.702846 7.656096 -0.471300 -0.583122 0.661699 191 255 146
-6.631298 4.809785 4.025184 -0.700224 0.268032 0.661699 255 255 255
-7.774663 0.078257 4.731831 -0.700224 0.268032 0.661699 5 1 255
-3.946737 2.859360 7.656096 -0.700224 0.268032 0.661699 255 255 255
2.368660 7.734100 4.025187 0.038530 0.748779 0.661699 2 255 246
-2.484652 7.359362 4.731847 0.038530 0.748779 0.661699 248 255 1
1.343268 4.578215 7.656097 0.038530 0.748779 0.661699 255 255 255
7.931004 0.078257 4.025148 0.724042 0.194736 0.661695 255 138 0
6.074872 4.578229 4.731833 0.724042 0.194736 0.661695 255 255 255
4.612736 0.078257 7.656073 0.724042 0.194736 0.661695 106 255 2
4.612736 0.078257 7.656073 0.268034 0.194737 0.943523 106 255 2
1.343268 4.578215 7.656097 0.268034 0.194737 0.943523 255 255 255
-0.118832 0.078257 9.000208 0.268034 0.194737 0.943523 0 243 194
4.612736 0.078257 7.656073 0.491119 0.356821 0.794657 106 255 2
6.074872 4.578229 4.731833 0.491119 0.356821 0.794657 255 255 255
1.343268 4.578215 7.656097 0.491119 0.356821 0.794657 255 255 255
6.074872 4.578229 4.731833 0.408946 0.628425 0.661698 255 255 255
2.368660 7.734100 4.025187 0.408946 0.628425 0.661698 2 255 246
1.343268 4.578215 7.656097 0.408946 0.628425 0.661698 255 255 255
1.343268 4.578215 7.656097 -0.102381 0.315090 0.943523 255 255 255
-3.946737 2.859360 7.656096 -0.102381 0.315090 0.943523 255 255 255
-0.118832 0.078257 9.000208 -0.102381 0.315090 0.943523 0 243 194
1.343268 4.578215 7.656097 -0.187594 0.577345 0.794658 255 255 255
-2.484652 7.359362 4.731847 -0.187594 0.577345 0.794658 248 255 1
-3.946737 2.859360 7.656096 -0.187594 0.577345 0.794658 255 255 255
-2.484652 7.359362 4.731847 -0.471300 0.583122 0.661699 248 255 1
-6.631298 4.809785 4.025184 -0.471300 0.583122 0.661699 255 255 255
-3.946737 2.859360 7.656096 -0.471300 0.583122 0.661699 255 255 255
-3.946737 2.859360 7.656096 -0.331305 0.000000 0.943524 255 255 255
-3.946737 -2.702846 7.656096 -0.331305 0.000000 0.943524 191 255 146
-0.118832 0.078257 9.000208 -0.331305 0.000000 0.943524 0 243 194
-3.946737 2.859360 7.656096 -0.607061 0.000000 0.794656 255 255 255
-7.774663 0.078257 4.731831 -0.607061 0.000000 0.794656 5 1 255
-3.946737 -2.702846 7.656096 -0.607061 0.000000 0.794656 191 255 146
-7.774663 0.078257 4.731831 -0.700224 -0.268032 0.661699 5 1 255
-6.631298 -4.653271 4.025184 -0.700224 -0.268032 0.661699 255 255 255
-3.946737 -2.702846 7.656096 -0.700224 -0.268032 0.661699 191 255 146
-3.946737 -2.702846 7.656096 -0.102381 -0.315090 0.943523 191 255 146
1.343268 -4.421700 7.656097 -0.102381 -0.315090 0.943523 255 255 255
-0.118832 0.078257 9.000208 -0.102381 -0.315090 0.943523 0 243 194
-3.946737 -2.702846 7.656096 -0.187594 -0.577345 0.794658 191 255 146
-2.484652 -7.202847 4.731847 -0.187594 -0.577345 0.794658 255 255 255
1.343268 -4.421700 7.656097 -0.187594 -0.577345 0.794658 255 255 255
-2.484652 -7.202847 4.731847 0.038530 -0.748779 0.661699 255 255 255
2.368660 -7.577586 4.025187 0.038530 -0.748779 0.661699 5 255 246
1.343268 -4.421700 7.656097 0.038530 -0.748779 0.661699 255 255 255
1.343268 -4.421700 7.656097 0.268034 -0.194737 0.943523 255 255 255
4.612736 0.078257 7.656073 0.268034 -0.194737 0.943523 106 255 2
-0.118832 0.078257 9.000208 0.268034 -0.194737 0.943523 0 243 194
1.343268 -4.421700 7.656097 0.491119 -0.356821 0.794657 255 255 255
6.074872 -4.421715 4.731833 0.491119 -0.356821 0.794657 255 255 255
4.612736 0.078257 7.656073 0.491119 -0.356821 0.794657 106 255 2
6.074872 -4.421715 4.731833 0.724042 -0.194736 0.661695 255 255 255
7.931004 0.078257 4.025148 0.724042 -0.194736 0.661695 255 138 0
4.612736 0.078257 7.656073 0.724042 -0.194736 0.661695 106 255 2
8.440688 2.859371 0.000208 0.889697 0.315095 0.330385 255 255 255
6.074872 4.578229 4.731833 0.889697 0.315095 0.330385 255 255 255
7.931004 0.078257 4.025148 0.889697 0.315095 0.330385 255 138 0
8.440688 2.859371 0.000208 0.794656 0.577348 0.187595 255 255 255
5.171238 7.359407 0.000208 0.794656 0.577348 0.187595 227 164 255
6.074872 4.578229 4.731833 0.794656 0.577348 0.187595 255 255 255
5.171238 7.359407 0.000208 0.574602 0.748783 0.330388 227 164 255
2.368660 7.734100 4.025187 0.574602 0.748783 0.330388 2 255 246
6.074872 4.578229 4.731833 0.574602 0.748783 0.330388 255 255 255
-0.118832 9.078257 0.000208 -0.024747 0.943521 0.330386 255 255 255
-2.484652 7.359362 4.731847 -0.024747 0.943521 0.330386 248 255 1
2.368660 7.734100 4.025187 -0.024747 0.943521 0.330386 2 255 246
-0.118832 9.078257 0.000208 -0.303531 0.934171 0.187597 255 255 255
-5.408903 7.359407 0.000208 -0.303531 0.934171 0.187597 255 255 255
-2.484652 7.359362 4.731847 -0.303531 0.934171 0.187597 248 255 1
-5.408903 7.359407 0.000208 -0.534576 0.777865 0.330387 255 255 255
-6.631298 4.809785 4.025184 -0.534576 0.777865 0.330387 255 255 255
-2.484652 7.359362 4.731847 -0.534576 0.777865 0.330387 248 255 1
-8.678353 2.859371 0.000208 -0.904989 0.268031 0.330385 255 145 15
-7.774663 0.078257 4.731831 -0.904989 0.268031 0.330385 5 1 255
-6.631298 4.809785 4.025184 -0.904989 0.268031 0.330385 255 255 255
-8.678353 2.859371 0.000208 -0.982246 0.000000 0.187599 255 145 15
-8.678353 -2.702857 0.000208 -0.982246 0.000000 0.187599 3 255 246
-7.774663 0.078257 4.731831 -0.982246 0.000000 0.187599 5 1 255
-8.678353 -2.702857 0.000208 -0.904989 -0.268031 0.330385 3 255 246
-6.631298 -4.653271 4.025184 -0.904989 -0.268031 0.330385 255 255 255
-7.774663 0.078257 4.731831 -0.904989 -0.268031 0.330385 5 1 255
-5.408903 -7.202893 0.000208 -0.534576 -0.777865 0.330387 255 138 0
-2.484652 -7.202847 4.731847 -0.534576 -0.777865 0.330387 255 255 255
-6.631298 -4.653271 4.025184 -0.534576 -0.777865 0.330387 255 255 255
-5.408903 -7.202893 0.000208 -0.303531 -0.934171 0.187597 255 138 0
-0.118832 -8.921741 0.000208 -0.303531 -0.934171 0.187597 255 255 255
-2.484652 -7.202847 4.731847 -0.303531 -0.934171 0.187597 255 255 255
-0.118832 -8.921741 0.000208 -0.024747 -0.943521 0.330386 255 255 255
2.368660 -7.577586 4.025187 -0.024747 -0.943521 0.330386 5 255 246
-2.484652 -7.202847 4.731847 -0.024747 -0.943521 0.330386 255 255 255
5.171238 -7.202893 0.000208 0.574602 -0.748783 0.330388 120 255 26
6.074872 -4.421715 4.731833 0.574602 -0.748783 0.330388 255 255 255
2.368660 -7.577586 4.025187 0.574602 -0.748783 0.330388 5 255 246
5.171238 -7.202893 0.000208 0.794656 -0.577348 0.187595 120 255 26
8.440688 -2.702857 0.000208 0.794656 -0.577348 0.187595 248 255 1
6.074872 -4.421715 4.731833 0.794656 -0.577348 0.187595 255 255 255
8.440688 -2.702857 0.000208 0.889697 -0.315095 0.330385 248 255 1
7.931004 0.078257 4.025148 0.889697 -0.315095 0.330385 255 138 0
6.074872 -4.421715 4.731833 0.889697 -0.315095 0.330385 255 255 255
5.171238 7.359407 0.000208 0.306569 0.943521 0.125629 227 164 255
-0.118832 9.078257 0.000208 0.306569 0.943521 0.125629 255 255 255
2.368660 7.734100 4.025187 0.306569 0.943521 0.125629 2 255 246
5.171238 7.359407 0.000208 0.303531 0.934171 -0.187597 227 164 255
2.246987 7.359362 -4.731431 0.303531 0.934171 -0.187597 255 255 255
-0.118832 9.078257 0.000208 0.303531 0.934171 -0.187597 255 255 255
2.246987 7.359362 -4.731431 0.024747 0.943521 -0.330386 255 255 255
-2.606324 7.734100 -4.024771 0.024747 0.943521 -0.330386 1 255 246
-0.118832 9.078257 0.000208 0.024747 0.943521 -0.330386 255 255 255
-5.408903 7.359407 0.000208 -0.802609 0.583126 0.125627 255 255 255
-8.678353 2.859371 0.000208 -0.802609 0.583126 0.125627 255 145 15
-6.631298 4.809785 4.025184 -0.802609 0.583126 0.125627 255 255 255
-5.408903 7.359407 0.000208 -0.794656 0.577348 -0.187595 255 255 255
-6.312537 4.578229 -4.731419 -0.794656 0.577348 -0.187595 255 255 255
-8.678353 2.859371 0.000208 -0.794656 0.577348 -0.187595 255 145 15
-6.312537 4.578229 -4.731419 -0.889697 0.315095 -0.330385 255 255 255
-8.168669 0.078257 -4.024733 -0.889697 0.315095 -0.330385 4 255 36
-8.678353 2.859371 0.000208 -0.889697 0.315095 -0.330385 255 145 15
-8.678353 -2.702857 0.000208 -0.802609 -0.583126 0.125627 3 255 246
-5.408903 -7.202893 0.000208 -0.802609 -0.583126 0.125627 255 138 0
-6.631298 -4.653271 4.025184 -0.802609 -0.583126 0.125627 255 255 255
-8.678353 -2.702857 0.000208 -0.794656 -0.577348 -0.187595 3 255 246
-6.312537 -4.421715 -4.731419 -0.794656 -0.577348 -0.187595 255 255 255
-5.408903 -7.202893 0.000208 -0.794656 -0.577348 -0.187595 255 138 0
-6.312537 -4.421715 -4.731419 -0.574602 -0.748784 -0.330388 255 255 255
-2.606324 -7.577586 -4.024771 -0.574602 -0.748784 -0.330388 255 255 255
-5.408903 -7.202893 0.000208 -0.574602 -0.748784 -0.330388 255 138 0
-0.118832 -8.921741 0.000208 0.306569 -0.943522 0.125629 255 255 255
5.171238 -7.202893 0.000208 0.306569 -0.943522 0.125629 120 255 26
2.368660 -7.577586 4.025187 0.306569 -0.943522 0.125629 5 255 246
-0.118832 -8.921741 0.000208 0.303531 -0.934171 -0.187597 255 255 255
2.246987 -7.202847 -4.731431 0.303531 -0.934171 -0.187597 255 255 255
5.171238 -7.202893 0.000208 0.303531 -0.934171 -0.187597 120 255 26
2.246987 -7.202847 -4.731431 0.534576 -0.777865 -0.330387 255 255 255
6.393633 -4.653271 -4.024768 0.534576 -0.777865 -0.330387 178 2 255
5.171238 -7.202893 0.000208 0.534576 -0.777865 -0.330387 120 255 26
8.440688 -2.702857 0.000208 0.992077 0.000000 0.125628 248 255 1
8.440688 2.859371 0.000208 0.992077 0.000000 0.125628 255 255 255
7.931004 0.078257 4.025148 0.992077 0.000000 0.125628 255 138 0
8.440688 -2.702857 0.000208 0.982246 0.000000 -0.187598 248 255 1
7.536999 0.078257 -4.731416 0.982246 0.000000 -0.187598 8 255 39
8.440688 2.859371 0.000208 0.982246 0.000000 -0.187598 255 255 255
7.536999 0.078257 -4.731416 0.904989 0.268032 -0.330385 8 255 39
6.393633 4.809785 -4.024768 0.904989 0.268032 -0.330385 130 255 43
8.440688 2.859371 0.000208 0.904989 0.268032 -0.330385 255 255 255
3.709072 2.859360 -7.655680 0.471300 0.583122 -0.661699 8 4 255
2.246987 7.359362 -4.731431 0.471300 0.583122 -0.661699 255 255 255
6.393633 4.809785 -4.024768 0.471300 0.583122 -0.661699 130 255 43
3.709072 2.859360 -7.655680 0.187594 0.577345 -0.794658 8 4 255
-1.580932 4.578215 -7.655683 0.187594 0.577345 -0.794658 248 255 0
2.246987 7.359362 -4.731431 0.187594 0.577345 -0.794658 255 255 255
-1.580932 4.578215 -7.655683 -0.038530 0.748779 -0.661699 248 255 0
-2.606324 7.734100 -4.024771 -0.038530 0.748779 -0.661699 1 255 246
2.246987 7.359362 -4.731431 -0.038530 0.748779 -0.661699 255 255 255
-1.580932 4.578215 -7.655683 -0.408946 0.628425 -0.661698 248 255 0
-6.312537 4.578229 -4.731419 -0.408946 0.628425 -0.661698 255 255 255
-2.606324 7.734100 -4.024771 -0.408946 0.628425 -0.661698 1 255 246
-1.580932 4.578215 -7.655683 -0.491119 0.356821 -0.794657 248 255 0
-4.850400 0.078257 -7.655658 -0.491119 0.356821 -0.794657 255 255 255
-6.312537 4.578229 -4.731419 -0.491119 0.356821 -0.794657 255 255 255
-4.850400 0.078257 -7.655658 -0.724042 0.194736 -0.661695 255 255 255
-8.168669 0.078257 -4.024733 -0.724042 0.194736 -0.661695 4 255 36
-6.312537 4.578229 -4.731419 -0.724042 0.194736 -0.661695 255 255 255
-4.850400 0.078257 -7.655658 -0.724042 -0.194736 -0.661695 255 255 255
-6.312537 -4.421715 -4.731419 -0.724042 -0.194736 -0.661695 255 255 255
-8.168669 0.078257 -4.024733 -0.724042 -0.194736 -0.661695 4 255 36
-4.850400 0.078257 -7.655658 -0.491119 -0.356821 -0.794658 255 255 255
-1.580932 -4.421700 -7.655683 -0.491119 -0.356821 -0.794658 1 255 246
-6.312537 -4.421715 -4.731419 -0.491119 -0.356821 -0.794658 255 255 255
-1.580932 -4.421700 -7.655683 -0.408946 -0.628425 -0.661698 1 255 246
-2.606324 -7.577586 -4.024771 -0.408946 -0.628425 -0.661698 255 255 255
-6.312537 -4.421715 -4.731419 -0.408946 -0.628425 -0.661698 255 255 255
7.536999 0.078257 -4.731416 0.700224 0.268032 -0.661699 8 255 39
3.709072 2.859360 -7.655680 0.700224 0.268032 -0.661699 8 4 255
6.393633 4.809785 -4.024768 0.700224 0.268032 -0.661699 130 255 43
7.536999 0.078257 -4.731416 0.607060 0.000000 -0.794656 8 255 39
3.709072 -2.702846 -7.655680 0.607060 0.000000 -0.794656 17 255 178
3.709072 2.859360 -7.655680 0.607060 0.000000 -0.794656 8 4 255
3.709072 -2.702846 -7.655680 0.331305 0.000000 -0.943524 17 255 178
-0.118832 0.078257 -8.999792 0.331305 0.000000 -0.943524 255 255 255
3.709072 2.859360 -7.655680 0.331305 0.000000 -0.943524 8 4 255
-1.580932 -4.421700 -7.655683 -0.038530 -0.748779 -0.661699 1 255 246
2.246987 -7.202847 -4.731431 -0.038530 -0.748779 -0.661699 255 255 255
-2.606324 -7.577586 -4.024771 -0.038530 -0.748779 -0.661699 255 255 255
-1.580932 -4.421700 -7.655683 0.187594 -0.577345 -0.794658 1 255 246
3.709072 -2.702846 -7.655680 0.187594 -0.577345 -0.794658 17 255 178
2.246987 -7.202847 -4.731431 0.187594 -0.577345 -0.794658 255 255 255
3.709072 -2.702846 -7.655680 0.471300 -0.583122 -0.661699 17 255 178
6.393633 -4.653271 -4.024768 0.471300 -0.583122 -0.661699 178 2 255
2.246987 -7.202847 -4.731431 0.471300 -0.583122 -0.661699 255 255 255
3 0 1 2
3 3 4 5
3 6 7 8
3 9 10 11
3 12 13 14
3 15 16 17
3 18 19 20
3 21 22 23
3 24 25 26
3 27 28 29
3 30 31 32
3 33 34 35
3 36 37 38
3 39 40 41
3 42 43 44
3 45 46 47
3 48 49 50
3 51 52 53
3 54 55 56
3 57 58 59
3 60 61 62
3 63 64 65
3 66 67 68
3 69 70 71
3 72 73 74
3 75 76 77
3 78 79 80
3 81 82 83
3 84 85 86
3 87 88 89
3 90 91 92
3 93 94 95
3 96 97 98
3 99 100 101
3 102 103 104
3 105 106 107
3 108 109 110
3 111 112 113
3 114 115 116
3 117 118 119
3 120 121 122
3 123 124 125
3 126 127 128
3 129 130 131
3 132 133 134
3 135 136 137
3 138 139 140
3 141 142 143
3 144 145 146
3 147 148 149
3 150 151 152
3 153 154 155
3 156 157 158
3 159 160 161
3 162 163 164
3 165 166 167
3 168 169 170
3 171 172 173
3 174 175 176
3 177 178 179
3 180 181 182
3 183 184 185
3 186 187 188
3 189 190 191
3 192 193 194
3 195 196 197
3 198 199 200
3 201 202 203
3 204 205 206
3 207 208 209
3 210 211 212
3 213 214 215
3 216 217 218
3 219 220 221
3 222 223 224
3 225 226 227
3 228 229 230
3 231 232 233
3 234 235 236
3 237 238 239
