ply
format ascii 1.0
comment Created by Blender 2.79 (sub 0) - www.blender.org, source file: ''
element vertex 240
property float x
property float y
property float z
property float nx
property float ny
property float nz
property uchar red
property uchar green
property uchar blue
element face 80
property list uchar uint vertex_indices
end_header
0.000000 0.000000 -7.224282 0.102381 -0.315090 -0.943523 120 233 250
3.766644 -2.736595 -5.901680 0.102381 -0.315090 -0.943523 255 255 255
-1.438701 -4.427942 -5.901682 0.102381 -0.315090 -0.943523 77 224 85
6.408244 -4.655807 -2.328876 0.700224 -0.268032 -0.661699 182 216 206
3.766644 -2.736595 -5.901680 0.700224 -0.268032 -0.661699 19 136 82
7.533311 0.000000 -3.024214 0.700224 -0.268032 -0.661699 16 224 7
0.000000 0.000000 -7.224282 -0.268034 -0.194737 -0.943523 120 233 250
-1.438701 -4.427942 -5.901682 -0.268034 -0.194737 -0.943523 77 224 85
-4.655846 0.000000 -5.901658 -0.268034 -0.194737 -0.943523 255 255 255
0.000000 0.000000 -7.224282 -0.268034 0.194737 -0.943523 120 233 250
-4.655846 0.000000 -5.901658 -0.268034 0.194737 -0.943523 255 255 255
-1.438701 4.427942 -5.901682 -0.268034 0.194737 -0.943523 29 112 11
0.000000 0.000000 -7.224282 0.102381 0.315090 -0.943523 120 233 250
-1.438701 4.427942 -5.901682 0.102381 0.315090 -0.943523 29 112 11
3.766644 2.736595 -5.901680 0.102381 0.315090 -0.943523 99 186 115
6.408244 -4.655807 -2.328876 0.904989 -0.268031 -0.330385 182 216 206
7.533311 0.000000 -3.024214 0.904989 -0.268031 -0.330385 16 224 7
8.422539 -2.736606 1.631686 0.904989 -0.268031 -0.330385 94 137 161
-2.447684 -7.533323 -2.328878 0.024747 -0.943521 -0.330386 185 207 222
2.327958 -7.164582 -3.024230 0.024747 -0.943521 -0.330386 161 219 147
0.000000 -8.855968 1.631686 0.024747 -0.943521 -0.330386 221 248 212
-7.921010 0.000000 -2.328841 -0.889697 -0.315095 -0.330385 20 111 250
-6.094584 -4.427957 -3.024217 -0.889697 -0.315095 -0.330385 194 255 144
-8.422539 -2.736606 1.631686 -0.889697 -0.315095 -0.330385 107 70 0
-2.447684 7.533323 -2.328878 -0.574602 0.748784 -0.330388 176 210 190
-6.094584 4.427957 -3.024217 -0.574602 0.748784 -0.330388 34 89 185
-5.205411 7.164627 1.631686 -0.574602 0.748784 -0.330388 197 251 251
6.408244 4.655807 -2.328876 0.534576 0.777865 -0.330387 45 135 253
2.327958 7.164582 -3.024230 0.534576 0.777865 -0.330387 11 187 145
5.205411 7.164627 1.631686 0.534576 0.777865 -0.330387 206 233 201
6.408244 -4.655807 -2.328876 0.802609 -0.583126 -0.125627 182 216 206
8.422539 -2.736606 1.631686 0.802609 -0.583126 -0.125627 94 137 161
5.205411 -7.164627 1.631686 0.802609 -0.583126 -0.125627 57 121 218
-2.447684 -7.533323 -2.328878 -0.306569 -0.943521 -0.125629 220 247 220
0.000000 -8.855968 1.631686 -0.306569 -0.943521 -0.125629 221 248 212
-5.205411 -7.164627 1.631686 -0.306569 -0.943521 -0.125629 25 37 42
-7.921010 0.000000 -2.328841 -0.992077 -0.000000 -0.125628 20 111 250
-8.422539 -2.736606 1.631686 -0.992077 -0.000000 -0.125628 107 70 0
-8.422539 2.736606 1.631686 -0.992077 -0.000000 -0.125628 255 255 255
-2.447684 7.533323 -2.328878 -0.306569 0.943521 -0.125629 176 210 190
-5.205411 7.164627 1.631686 -0.306569 0.943521 -0.125629 197 251 251
0.000000 8.855968 1.631686 -0.306569 0.943521 -0.125629 184 208 201
6.408244 4.655807 -2.328876 0.802609 0.583126 -0.125627 45 135 253
5.205411 7.164627 1.631686 0.802609 0.583126 -0.125627 206 233 201
8.422539 2.736606 1.631686 0.802609 0.583126 -0.125627 83 66 208
2.447684 -7.533323 5.592251 0.408946 -0.628425 0.661699 0 207 9
6.094584 -4.427957 6.287590 0.408946 -0.628425 0.661699 29 218 25
1.438701 -4.427942 9.165054 0.408946 -0.628425 0.661699 200 250 251
-6.408244 -4.655807 5.592248 -0.471300 -0.583122 0.661699 38 127 253
-2.327958 -7.164582 6.287602 -0.471300 -0.583122 0.661699 171 192 222
-3.766644 -2.736595 9.165053 -0.471300 -0.583122 0.661699 34 244 207
-6.408244 4.655807 5.592248 -0.700224 0.268032 0.661699 14 106 20
-7.533311 0.000000 6.287587 -0.700224 0.268032 0.661699 218 255 238
-3.766644 2.736595 9.165053 -0.700224 0.268032 0.661699 255 255 255
2.447684 7.533323 5.592251 0.038530 0.748779 0.661699 44 99 255
-2.327958 7.164582 6.287602 0.038530 0.748779 0.661699 81 144 135
1.438701 4.427942 9.165054 0.038530 0.748779 0.661699 255 255 255
7.921010 0.000000 5.592214 0.724042 0.194736 0.661695 143 207 255
6.094584 4.427957 6.287590 0.724042 0.194736 0.661695 9 244 8
4.655846 0.000000 9.165030 0.724042 0.194736 0.661695 139 163 196
4.655846 0.000000 9.165030 0.268034 0.194737 0.943523 255 255 255
1.438701 4.427942 9.165054 0.268034 0.194737 0.943523 255 255 255
0.000000 0.000000 10.487655 0.268034 0.194737 0.943523 21 234 22
4.655846 0.000000 9.165030 0.491119 0.356821 0.794658 255 255 255
6.094584 4.427957 6.287590 0.491119 0.356821 0.794658 9 244 8
1.438701 4.427942 9.165054 0.491119 0.356821 0.794658 255 255 255
6.094584 4.427957 6.287590 0.408946 0.628425 0.661699 9 244 8
2.447684 7.533323 5.592251 0.408946 0.628425 0.661699 44 99 255
1.438701 4.427942 9.165054 0.408946 0.628425 0.661699 255 255 255
1.438701 4.427942 9.165054 -0.102381 0.315090 0.943524 255 255 255
-3.766644 2.736595 9.165053 -0.102381 0.315090 0.943524 255 255 255
0.000000 0.000000 10.487655 -0.102381 0.315090 0.943524 21 234 22
1.438701 4.427942 9.165054 -0.187594 0.577345 0.794658 255 255 255
-2.327958 7.164582 6.287602 -0.187594 0.577345 0.794658 81 144 135
-3.766644 2.736595 9.165053 -0.187594 0.577345 0.794658 255 255 255
-2.327958 7.164582 6.287602 -0.471300 0.583122 0.661699 81 144 135
-6.408244 4.655807 5.592248 -0.471300 0.583122 0.661699 14 106 20
-3.766644 2.736595 9.165053 -0.471300 0.583122 0.661699 255 255 255
-3.766644 2.736595 9.165053 -0.331304 0.000000 0.943524 255 255 255
-3.766644 -2.736595 9.165053 -0.331304 0.000000 0.943524 34 244 207
0.000000 0.000000 10.487655 -0.331304 0.000000 0.943524 21 234 22
-3.766644 2.736595 9.165053 -0.607061 0.000000 0.794656 255 255 255
-7.533311 0.000000 6.287587 -0.607061 0.000000 0.794656 218 255 238
-3.766644 -2.736595 9.165053 -0.607061 0.000000 0.794656 34 244 207
-7.533311 0.000000 6.287587 -0.700224 -0.268032 0.661699 218 255 238
-6.408244 -4.655807 5.592248 -0.700224 -0.268032 0.661699 38 127 253
-3.766644 -2.736595 9.165053 -0.700224 -0.268032 0.661699 34 244 207
-3.766644 -2.736595 9.165053 -0.102381 -0.315090 0.943524 34 244 207
1.438701 -4.427942 9.165054 -0.102381 -0.315090 0.943524 200 250 251
0.000000 0.000000 10.487655 -0.102381 -0.315090 0.943524 21 234 22
-3.766644 -2.736595 9.165053 -0.187594 -0.577345 0.794658 34 244 207
-2.327958 -7.164582 6.287602 -0.187594 -0.577345 0.794658 171 192 222
1.438701 -4.427942 9.165054 -0.187594 -0.577345 0.794658 200 250 251
-2.327958 -7.164582 6.287602 0.038530 -0.748779 0.661699 171 192 222
2.447684 -7.533323 5.592251 0.038530 -0.748779 0.661699 0 207 9
1.438701 -4.427942 9.165054 0.038530 -0.748779 0.661699 200 250 251
1.438701 -4.427942 9.165054 0.268034 -0.194737 0.943523 200 250 251
4.655846 0.000000 9.165030 0.268034 -0.194737 0.943523 139 163 196
0.000000 0.000000 10.487655 0.268034 -0.194737 0.943523 21 234 22
1.438701 -4.427942 9.165054 0.491119 -0.356821 0.794658 200 250 251
6.094584 -4.427957 6.287590 0.491119 -0.356821 0.794658 29 218 25
4.655846 0.000000 9.165030 0.491119 -0.356821 0.794658 139 163 196
6.094584 -4.427957 6.287590 0.724042 -0.194736 0.661695 29 218 25
7.921010 0.000000 5.592214 0.724042 -0.194736 0.661695 143 207 255
4.655846 0.000000 9.165030 0.724042 -0.194736 0.661695 139 163 196
8.422539 2.736606 1.631686 0.889697 0.315095 0.330385 83 66 208
6.094584 4.427957 6.287590 0.889697 0.315095 0.330385 9 244 8
7.921010 0.000000 5.592214 0.889697 0.315095 0.330385 143 207 255
8.422539 2.736606 1.631686 0.794656 0.577348 0.187595 83 66 208
5.205411 7.164627 1.631686 0.794656 0.577348 0.187595 206 233 201
6.094584 4.427957 6.287590 0.794656 0.577348 0.187595 9 244 8
5.205411 7.164627 1.631686 0.574602 0.748784 0.330388 206 233 201
2.447684 7.533323 5.592251 0.574602 0.748784 0.330388 44 99 255
6.094584 4.427957 6.287590 0.574602 0.748784 0.330388 9 244 8
0.000000 8.855968 1.631686 -0.024747 0.943521 0.330386 231 255 234
-2.327958 7.164582 6.287602 -0.024747 0.943521 0.330386 81 144 135
2.447684 7.533323 5.592251 -0.024747 0.943521 0.330386 44 99 255
0.000000 8.855968 1.631686 -0.303531 0.934171 0.187597 255 255 255
-5.205411 7.164627 1.631686 -0.303531 0.934171 0.187597 199 253 253
-2.327958 7.164582 6.287602 -0.303531 0.934171 0.187597 81 144 135
-5.205411 7.164627 1.631686 -0.534576 0.777865 0.330387 203 229 211
-6.408244 4.655807 5.592248 -0.534576 0.777865 0.330387 14 106 20
-2.327958 7.164582 6.287602 -0.534576 0.777865 0.330387 81 144 135
-8.422539 2.736606 1.631686 -0.904989 0.268031 0.330385 255 255 255
-7.533311 0.000000 6.287587 -0.904989 0.268031 0.330385 218 255 238
-6.408244 4.655807 5.592248 -0.904989 0.268031 0.330385 14 106 20
-8.422539 2.736606 1.631686 -0.982246 0.000000 0.187599 255 255 255
-8.422539 -2.736606 1.631686 -0.982246 0.000000 0.187599 107 70 0
-7.533311 0.000000 6.287587 -0.982246 0.000000 0.187599 218 255 238
-8.422539 -2.736606 1.631686 -0.904989 -0.268031 0.330385 107 70 0
-6.408244 -4.655807 5.592248 -0.904989 -0.268031 0.330385 38 127 253
-7.533311 0.000000 6.287587 -0.904989 -0.268031 0.330385 218 255 238
-5.205411 -7.164627 1.631686 -0.534576 -0.777865 0.330387 255 255 255
-2.327958 -7.164582 6.287602 -0.534576 -0.777865 0.330387 171 192 222
-6.408244 -4.655807 5.592248 -0.534576 -0.777865 0.330387 38 127 253
-5.205411 -7.164627 1.631686 -0.303531 -0.934171 0.187597 25 37 42
0.000000 -8.855968 1.631686 -0.303531 -0.934171 0.187597 221 248 212
-2.327958 -7.164582 6.287602 -0.303531 -0.934171 0.187597 171 192 222
0.000000 -8.855968 1.631686 -0.024747 -0.943521 0.330386 221 248 212
2.447684 -7.533323 5.592251 -0.024747 -0.943521 0.330386 0 207 9
-2.327958 -7.164582 6.287602 -0.024747 -0.943521 0.330386 171 192 222
5.205411 -7.164627 1.631686 0.574602 -0.748783 0.330388 57 121 218
6.094584 -4.427957 6.287590 0.574602 -0.748783 0.330388 29 218 25
2.447684 -7.533323 5.592251 0.574602 -0.748783 0.330388 0 207 9
5.205411 -7.164627 1.631686 0.794656 -0.577348 0.187595 57 121 218
8.422539 -2.736606 1.631686 0.794656 -0.577348 0.187595 94 137 161
6.094584 -4.427957 6.287590 0.794656 -0.577348 0.187595 29 218 25
8.422539 -2.736606 1.631686 0.889697 -0.315095 0.330385 94 137 161
7.921010 0.000000 5.592214 0.889697 -0.315095 0.330385 143 207 255
6.094584 -4.427957 6.287590 0.889697 -0.315095 0.330385 29 218 25
5.205411 7.164627 1.631686 0.306569 0.943521 0.125629 206 233 201
0.000000 8.855968 1.631686 0.306569 0.943521 0.125629 231 255 234
2.447684 7.533323 5.592251 0.306569 0.943521 0.125629 44 99 255
5.205411 7.164627 1.631686 0.303531 0.934171 -0.187597 206 233 201
2.327958 7.164582 -3.024230 0.303531 0.934171 -0.187597 11 187 145
0.000000 8.855968 1.631686 0.303531 0.934171 -0.187597 231 255 234
2.327958 7.164582 -3.024230 0.024747 0.943521 -0.330386 12 187 145
-2.447684 7.533323 -2.328878 0.024747 0.943521 -0.330386 27 194 14
0.000000 8.855968 1.631686 0.024747 0.943521 -0.330386 70 216 240
-5.205411 7.164627 1.631686 -0.802609 0.583126 0.125627 203 229 211
-8.422539 2.736606 1.631686 -0.802609 0.583126 0.125627 255 255 255
-6.408244 4.655807 5.592248 -0.802609 0.583126 0.125627 14 106 20
-5.205411 7.164627 1.631686 -0.794656 0.577348 -0.187595 203 229 211
-6.094584 4.427957 -3.024217 -0.794656 0.577348 -0.187595 34 89 185
-8.422539 2.736606 1.631686 -0.794656 0.577348 -0.187595 255 255 255
-6.094584 4.427957 -3.024217 -0.889697 0.315095 -0.330385 34 89 185
-7.921010 0.000000 -2.328841 -0.889697 0.315095 -0.330385 20 111 250
-8.422539 2.736606 1.631686 -0.889697 0.315095 -0.330385 255 255 255
-8.422539 -2.736606 1.631686 -0.802609 -0.583126 0.125627 107 70 0
-5.205411 -7.164627 1.631686 -0.802609 -0.583126 0.125627 255 255 255
-6.408244 -4.655807 5.592248 -0.802609 -0.583126 0.125627 38 127 253
-8.422539 -2.736606 1.631686 -0.794656 -0.577348 -0.187595 107 70 0
-6.094584 -4.427957 -3.024217 -0.794656 -0.577348 -0.187595 194 255 144
-5.205411 -7.164627 1.631686 -0.794656 -0.577348 -0.187595 255 255 255
-6.094584 -4.427957 -3.024217 -0.574602 -0.748784 -0.330388 194 255 144
-2.447684 -7.533323 -2.328878 -0.574602 -0.748784 -0.330388 185 207 222
-5.205411 -7.164627 1.631686 -0.574602 -0.748784 -0.330388 255 255 255
0.000000 -8.855968 1.631686 0.306569 -0.943521 0.125629 221 248 212
5.205411 -7.164627 1.631686 0.306569 -0.943521 0.125629 57 121 218
2.447684 -7.533323 5.592251 0.306569 -0.943521 0.125629 0 207 9
0.000000 -8.855968 1.631686 0.303531 -0.934171 -0.187597 221 248 212
2.327958 -7.164582 -3.024230 0.303531 -0.934171 -0.187597 161 219 147
5.205411 -7.164627 1.631686 0.303531 -0.934171 -0.187597 57 121 218
2.327958 -7.164582 -3.024230 0.534576 -0.777865 -0.330387 161 219 147
6.408244 -4.655807 -2.328876 0.534576 -0.777865 -0.330387 191 214 215
5.205411 -7.164627 1.631686 0.534576 -0.777865 -0.330387 57 121 218
8.422539 -2.736606 1.631686 0.992077 0.000000 0.125628 94 137 161
8.422539 2.736606 1.631686 0.992077 0.000000 0.125628 83 66 208
7.921010 0.000000 5.592214 0.992077 0.000000 0.125628 143 207 255
8.422539 -2.736606 1.631686 0.982246 0.000000 -0.187599 94 137 161
7.533311 0.000000 -3.024214 0.982246 0.000000 -0.187599 16 224 7
8.422539 2.736606 1.631686 0.982246 0.000000 -0.187599 83 66 208
7.533311 0.000000 -3.024214 0.904989 0.268031 -0.330385 16 224 7
6.408244 4.655807 -2.328876 0.904989 0.268031 -0.330385 45 135 253
8.422539 2.736606 1.631686 0.904989 0.268031 -0.330385 83 66 208
3.766644 2.736595 -5.901680 0.471300 0.583122 -0.661699 99 186 115
2.327958 7.164582 -3.024230 0.471300 0.583122 -0.661699 12 187 145
6.408244 4.655807 -2.328876 0.471300 0.583122 -0.661699 45 135 253
3.766644 2.736595 -5.901680 0.187594 0.577345 -0.794658 99 186 115
-1.438701 4.427942 -5.901682 0.187594 0.577345 -0.794658 29 112 11
2.327958 7.164582 -3.024230 0.187594 0.577345 -0.794658 254 254 254
-1.438701 4.427942 -5.901682 -0.038530 0.748779 -0.661699 29 112 11
-2.447684 7.533323 -2.328878 -0.038530 0.748779 -0.661699 236 249 235
2.327958 7.164582 -3.024230 -0.038530 0.748779 -0.661699 254 254 254
-1.438701 4.427942 -5.901682 -0.408946 0.628425 -0.661699 29 112 11
-6.094584 4.427957 -3.024217 -0.408946 0.628425 -0.661699 34 89 185
-2.447684 7.533323 -2.328878 -0.408946 0.628425 -0.661699 176 210 190
-1.438701 4.427942 -5.901682 -0.491119 0.356821 -0.794657 29 112 11
-4.655846 0.000000 -5.901658 -0.491119 0.356821 -0.794657 255 255 255
-6.094584 4.427957 -3.024217 -0.491119 0.356821 -0.794657 34 89 185
-4.655846 0.000000 -5.901658 -0.724042 0.194736 -0.661695 255 255 255
-7.921010 0.000000 -2.328841 -0.724042 0.194736 -0.661695 20 111 250
-6.094584 4.427957 -3.024217 -0.724042 0.194736 -0.661695 34 89 185
-4.655846 0.000000 -5.901658 -0.724042 -0.194736 -0.661695 255 255 255
-6.094584 -4.427957 -3.024217 -0.724042 -0.194736 -0.661695 194 255 144
-7.921010 0.000000 -2.328841 -0.724042 -0.194736 -0.661695 20 111 250
-4.655846 0.000000 -5.901658 -0.491119 -0.356821 -0.794657 255 255 255
-1.438701 -4.427942 -5.901682 -0.491119 -0.356821 -0.794657 77 224 85
-6.094584 -4.427957 -3.024217 -0.491119 -0.356821 -0.794657 194 255 144
-1.438701 -4.427942 -5.901682 -0.408946 -0.628425 -0.661698 77 224 85
-2.447684 -7.533323 -2.328878 -0.408946 -0.628425 -0.661698 185 207 222
-6.094584 -4.427957 -3.024217 -0.408946 -0.628425 -0.661698 194 255 144
7.533311 0.000000 -3.024214 0.700224 0.268032 -0.661699 16 224 7
3.766644 2.736595 -5.901680 0.700224 0.268032 -0.661699 99 186 115
6.408244 4.655807 -2.328876 0.700224 0.268032 -0.661699 45 135 253
7.533311 0.000000 -3.024214 0.607060 0.000000 -0.794656 16 224 7
3.766644 -2.736595 -5.901680 0.607060 0.000000 -0.794656 32 136 89
3.766644 2.736595 -5.901680 0.607060 0.000000 -0.794656 99 186 115
3.766644 -2.736595 -5.901680 0.331305 0.000000 -0.943524 255 255 255
0.000000 0.000000 -7.224282 0.331305 0.000000 -0.943524 120 233 250
3.766644 2.736595 -5.901680 0.331305 0.000000 -0.943524 99 186 115
-1.438701 -4.427942 -5.901682 -0.038530 -0.748779 -0.661699 16 215 24
2.327958 -7.164582 -3.024230 -0.038530 -0.748779 -0.661699 161 219 147
-2.447684 -7.533323 -2.328878 -0.038530 -0.748779 -0.661699 185 207 222
-1.438701 -4.427942 -5.901682 0.187594 -0.577345 -0.794658 16 215 24
3.766644 -2.736595 -5.901680 0.187594 -0.577345 -0.794658 14 248 96
2.327958 -7.164582 -3.024230 0.187594 -0.577345 -0.794658 161 219 147
3.766644 -2.736595 -5.901680 0.471300 -0.583122 -0.661699 14 248 96
6.408244 -4.655807 -2.328876 0.471300 -0.583122 -0.661699 191 214 215
2.327958 -7.164582 -3.024230 0.471300 -0.583122 -0.661699 161 219 147
3 0 1 2
3 3 4 5
3 6 7 8
3 9 10 11
3 12 13 14
3 15 16 17
3 18 19 20
3 21 22 23
3 24 25 26
3 27 28 29
3 30 31 32
3 33 34 35
3 36 37 38
3 39 40 41
3 42 43 44
3 45 46 47
3 48 49 50
3 51 52 53
3 54 55 56
3 57 58 59
3 60 61 62
3 63 64 65
3 66 67 68
3 69 70 71
3 72 73 74
3 75 76 77
3 78 79 80
3 81 82 83
3 84 85 86
3 87 88 89
3 90 91 92
3 93 94 95
3 96 97 98
3 99 100 101
3 102 103 104
3 105 106 107
3 108 109 110
3 111 112 113
3 114 115 116
3 117 118 119
3 120 121 122
3 123 124 125
3 126 127 128
3 129 130 131
3 132 133 134
3 135 136 137
3 138 139 140
3 141 142 143
3 144 145 146
3 147 148 149
3 150 151 152
3 153 154 155
3 156 157 158
3 159 160 161
3 162 163 164
3 165 166 167
3 168 169 170
3 171 172 173
3 174 175 176
3 177 178 179
3 180 181 182
3 183 184 185
3 186 187 188
3 189 190 191
3 192 193 194
3 195 196 197
3 198 199 200
3 201 202 203
3 204 205 206
3 207 208 209
3 210 211 212
3 213 214 215
3 216 217 218
3 219 220 221
3 222 223 224
3 225 226 227
3 228 229 230
3 231 232 233
3 234 235 236
3 237 238 239
