ply
format ascii 1.0
comment Created by Blender 2.79 (sub 0) - www.blender.org, source file: ''
element vertex 240
property float x
property float y
property float z
property float nx
property float ny
property float nz
property uchar red
property uchar green
property uchar blue
element face 80
property list uchar uint vertex_indices
end_header
0.228738 -0.771135 -0.651037 0.102381 -0.315090 -0.943523 255 255 255
0.654061 -1.080146 -0.501692 0.102381 -0.315090 -0.943523 255 255 255
0.066283 -1.271130 -0.501692 0.102381 -0.315090 -0.943523 255 255 255
0.952346 -1.296860 -0.098257 0.700224 -0.268032 -0.661699 255 255 255
0.654061 -1.080146 -0.501692 0.700224 -0.268032 -0.661699 255 255 255
1.079386 -0.771135 -0.176773 0.700224 -0.268032 -0.661699 255 255 255
0.228738 -0.771135 -0.651037 -0.268034 -0.194736 -0.943523 255 255 255
0.066283 -1.271130 -0.501692 -0.268034 -0.194736 -0.943523 255 255 255
-0.296991 -0.771135 -0.501689 -0.268034 -0.194736 -0.943523 255 255 255
0.228738 -0.771135 -0.651037 -0.268034 0.194737 -0.943523 255 255 255
-0.296991 -0.771135 -0.501689 -0.268034 0.194737 -0.943523 255 255 255
0.066283 -0.271140 -0.501692 -0.268034 0.194737 -0.943523 255 255 255
0.228738 -0.771135 -0.651037 0.102381 0.315090 -0.943523 255 255 255
0.066283 -0.271140 -0.501692 0.102381 0.315090 -0.943523 255 255 255
0.654061 -0.462124 -0.501692 0.102381 0.315090 -0.943523 255 255 255
0.952346 -1.296860 -0.098257 0.904989 -0.268032 -0.330385 3 150 188
1.079386 -0.771135 -0.176773 0.904989 -0.268032 -0.330385 177 220 249
1.179796 -1.080148 0.348963 0.904989 -0.268032 -0.330385 1 192 170
-0.047650 -1.621784 -0.098257 0.024747 -0.943521 -0.330386 255 255 255
0.491607 -1.580147 -0.176775 0.024747 -0.943521 -0.330386 255 255 255
0.228738 -1.771135 0.348963 0.024747 -0.943521 -0.330386 255 255 255
-0.665688 -0.771135 -0.098253 -0.889697 -0.315095 -0.330385 255 255 255
-0.459451 -1.271132 -0.176774 -0.889697 -0.315095 -0.330385 255 255 255
-0.722319 -1.080148 0.348963 -0.889697 -0.315095 -0.330385 255 255 255
-0.047650 0.079514 -0.098257 -0.574602 0.748784 -0.330388 193 254 143
-0.459451 -0.271138 -0.176774 -0.574602 0.748784 -0.330388 82 53 21
-0.359047 0.037882 0.348963 -0.574602 0.748784 -0.330388 255 255 255
0.952346 -0.245410 -0.098257 0.534576 0.777865 -0.330387 255 255 255
0.491607 0.037877 -0.176775 0.534576 0.777865 -0.330387 255 255 255
0.816524 0.037882 0.348963 0.534576 0.777865 -0.330387 255 255 255
0.952346 -1.296860 -0.098257 0.802609 -0.583126 -0.125627 3 150 188
1.179796 -1.080148 0.348963 0.802609 -0.583126 -0.125627 1 192 170
0.816524 -1.580152 0.348963 0.802609 -0.583126 -0.125627 212 244 236
-0.047650 -1.621784 -0.098257 -0.306569 -0.943522 -0.125629 255 255 255
0.228738 -1.771135 0.348963 -0.306569 -0.943522 -0.125629 255 255 255
-0.359047 -1.580152 0.348963 -0.306569 -0.943522 -0.125629 243 252 255
-0.665688 -0.771135 -0.098253 -0.992077 -0.000000 -0.125628 255 255 255
-0.722319 -1.080148 0.348963 -0.992077 -0.000000 -0.125628 255 255 255
-0.722319 -0.462122 0.348963 -0.992077 -0.000000 -0.125628 56 67 34
-0.047650 0.079514 -0.098257 -0.306569 0.943522 -0.125629 90 171 255
-0.359047 0.037882 0.348963 -0.306569 0.943522 -0.125629 255 255 255
0.228738 0.228865 0.348963 -0.306569 0.943522 -0.125629 0 241 2
0.952346 -0.245410 -0.098257 0.802609 0.583126 -0.125627 81 174 108
0.816524 0.037882 0.348963 0.802609 0.583126 -0.125627 202 229 231
1.179796 -0.462122 0.348963 0.802609 0.583126 -0.125627 205 247 172
0.505126 -1.621784 0.796183 0.408946 -0.628425 0.661699 53 111 248
0.916928 -1.271132 0.874699 0.408946 -0.628425 0.661699 20 227 25
0.391194 -1.271130 1.199617 0.408946 -0.628425 0.661699 182 205 229
-0.494869 -1.296860 0.796182 -0.471300 -0.583122 0.661699 67 123 23
-0.034130 -1.580147 0.874700 -0.471300 -0.583122 0.661699 15 146 167
-0.196584 -1.080146 1.199617 -0.471300 -0.583122 0.661699 171 255 118
-0.494869 -0.245410 0.796182 -0.700224 0.268032 0.661699 247 253 255
-0.621909 -0.771135 0.874699 -0.700224 0.268032 0.661699 8 254 13
-0.196584 -0.462124 1.199617 -0.700224 0.268032 0.661699 135 203 151
0.505126 0.079514 0.796183 0.038530 0.748779 0.661699 24 54 36
-0.034130 0.037877 0.874700 0.038530 0.748779 0.661699 120 192 128
0.391194 -0.271140 1.199617 0.038530 0.748779 0.661699 96 237 72
1.123165 -0.771135 0.796178 0.724042 0.194736 0.661695 38 243 210
0.916928 -0.271138 0.874699 0.724042 0.194736 0.661695 2 254 145
0.754468 -0.771135 1.199614 0.724042 0.194736 0.661695 52 62 14
0.754468 -0.771135 1.199614 0.268034 0.194737 0.943523 52 62 14
0.391194 -0.271140 1.199617 0.268034 0.194737 0.943523 96 237 72
0.228738 -0.771135 1.348963 0.268034 0.194737 0.943523 199 227 200
0.754468 -0.771135 1.199614 0.491119 0.356821 0.794658 52 62 14
0.916928 -0.271138 0.874699 0.491119 0.356821 0.794658 2 254 145
0.391194 -0.271140 1.199617 0.491119 0.356821 0.794658 96 237 72
0.916928 -0.271138 0.874699 0.408946 0.628425 0.661698 2 254 145
0.505126 0.079514 0.796183 0.408946 0.628425 0.661698 24 54 36
0.391194 -0.271140 1.199617 0.408946 0.628425 0.661698 96 237 72
0.391194 -0.271140 1.199617 -0.102381 0.315090 0.943523 96 237 72
-0.196584 -0.462124 1.199617 -0.102381 0.315090 0.943523 51 146 151
0.228738 -0.771135 1.348963 -0.102381 0.315090 0.943523 199 227 200
0.391194 -0.271140 1.199617 -0.187594 0.577345 0.794658 255 255 255
-0.034130 0.037877 0.874700 -0.187594 0.577345 0.794658 120 192 128
-0.196584 -0.462124 1.199617 -0.187594 0.577345 0.794658 135 203 151
-0.034130 0.037877 0.874700 -0.471300 0.583122 0.661699 120 192 128
-0.494869 -0.245410 0.796182 -0.471300 0.583122 0.661699 247 253 255
-0.196584 -0.462124 1.199617 -0.471300 0.583122 0.661699 135 203 151
-0.196584 -0.462124 1.199617 -0.331304 0.000000 0.943524 135 203 151
-0.196584 -1.080146 1.199617 -0.331304 0.000000 0.943524 171 255 118
0.228738 -0.771135 1.348963 -0.331304 0.000000 0.943524 255 255 255
-0.196584 -0.462124 1.199617 -0.607061 0.000000 0.794656 135 203 151
-0.621909 -0.771135 0.874699 -0.607061 0.000000 0.794656 125 204 255
-0.196584 -1.080146 1.199617 -0.607061 0.000000 0.794656 171 255 118
-0.621909 -0.771135 0.874699 -0.700224 -0.268032 0.661699 125 204 255
-0.494869 -1.296860 0.796182 -0.700224 -0.268032 0.661699 67 123 23
-0.196584 -1.080146 1.199617 -0.700224 -0.268032 0.661699 171 255 118
-0.196584 -1.080146 1.199617 -0.102381 -0.315090 0.943523 171 255 118
0.391194 -1.271130 1.199617 -0.102381 -0.315090 0.943523 106 88 1
0.228738 -0.771135 1.348963 -0.102381 -0.315090 0.943523 199 227 200
-0.196584 -1.080146 1.199617 -0.187594 -0.577345 0.794658 171 255 118
-0.034130 -1.580147 0.874700 -0.187594 -0.577345 0.794658 15 146 167
0.391194 -1.271130 1.199617 -0.187594 -0.577345 0.794658 106 88 1
-0.034130 -1.580147 0.874700 0.038530 -0.748779 0.661699 15 146 167
0.505126 -1.621784 0.796183 0.038530 -0.748779 0.661699 0 252 125
0.391194 -1.271130 1.199617 0.038530 -0.748779 0.661699 182 205 229
0.391194 -1.271130 1.199617 0.268034 -0.194737 0.943523 182 205 229
0.754468 -0.771135 1.199614 0.268034 -0.194737 0.943523 52 62 14
0.228738 -0.771135 1.348963 0.268034 -0.194737 0.943523 199 227 200
0.391194 -1.271130 1.199617 0.491119 -0.356821 0.794658 182 205 229
0.916928 -1.271132 0.874699 0.491119 -0.356821 0.794658 20 227 25
0.754468 -0.771135 1.199614 0.491119 -0.356821 0.794658 52 62 14
0.916928 -1.271132 0.874699 0.724042 -0.194736 0.661695 20 227 25
1.123165 -0.771135 0.796178 0.724042 -0.194736 0.661695 38 243 210
0.754468 -0.771135 1.199614 0.724042 -0.194736 0.661695 52 62 14
1.179796 -0.462122 0.348963 0.889697 0.315095 0.330385 205 247 172
0.916928 -0.271138 0.874699 0.889697 0.315095 0.330385 2 254 145
1.123165 -0.771135 0.796178 0.889697 0.315095 0.330385 38 243 210
1.179796 -0.462122 0.348963 0.794656 0.577348 0.187595 205 247 172
0.816524 0.037882 0.348963 0.794656 0.577348 0.187595 202 229 231
0.916928 -0.271138 0.874699 0.794656 0.577348 0.187595 2 254 145
0.816524 0.037882 0.348963 0.574602 0.748784 0.330388 202 229 231
0.505126 0.079514 0.796183 0.574602 0.748784 0.330388 82 226 73
0.916928 -0.271138 0.874699 0.574602 0.748784 0.330388 2 254 145
0.228738 0.228865 0.348963 -0.024747 0.943521 0.330386 0 241 2
-0.034130 0.037877 0.874700 -0.024747 0.943521 0.330386 120 192 128
0.505126 0.079514 0.796183 -0.024747 0.943521 0.330386 25 54 37
0.228738 0.228865 0.348963 -0.303531 0.934171 0.187597 0 241 2
-0.359047 0.037882 0.348963 -0.303531 0.934171 0.187597 255 255 255
-0.034130 0.037877 0.874700 -0.303531 0.934171 0.187597 120 192 128
-0.359047 0.037882 0.348963 -0.534576 0.777865 0.330387 255 255 255
-0.494869 -0.245410 0.796182 -0.534576 0.777865 0.330387 247 253 255
-0.034130 0.037877 0.874700 -0.534576 0.777865 0.330387 120 192 128
-0.722319 -0.462122 0.348963 -0.904989 0.268031 0.330385 56 67 34
-0.621909 -0.771135 0.874699 -0.904989 0.268031 0.330385 8 254 13
-0.494869 -0.245410 0.796182 -0.904989 0.268031 0.330385 247 253 255
-0.722319 -0.462122 0.348963 -0.982246 0.000000 0.187599 56 67 34
-0.722319 -1.080148 0.348963 -0.982246 0.000000 0.187599 255 255 255
-0.621909 -0.771135 0.874699 -0.982246 0.000000 0.187599 8 254 13
-0.722319 -1.080148 0.348963 -0.904989 -0.268032 0.330385 255 255 255
-0.494869 -1.296860 0.796182 -0.904989 -0.268032 0.330385 67 123 23
-0.621909 -0.771135 0.874699 -0.904989 -0.268032 0.330385 8 254 13
-0.359047 -1.580152 0.348963 -0.534576 -0.777864 0.330387 243 252 255
-0.034130 -1.580147 0.874700 -0.534576 -0.777864 0.330387 255 255 255
-0.494869 -1.296860 0.796182 -0.534576 -0.777864 0.330387 255 255 255
-0.359047 -1.580152 0.348963 -0.303531 -0.934171 0.187597 243 252 255
0.228738 -1.771135 0.348963 -0.303531 -0.934171 0.187597 255 255 255
-0.034130 -1.580147 0.874700 -0.303531 -0.934171 0.187597 255 255 255
0.228738 -1.771135 0.348963 -0.024747 -0.943521 0.330386 255 255 255
0.505126 -1.621784 0.796183 -0.024747 -0.943521 0.330386 255 255 255
-0.034130 -1.580147 0.874700 -0.024747 -0.943521 0.330386 255 255 255
0.816524 -1.580152 0.348963 0.574602 -0.748784 0.330388 212 244 236
0.916928 -1.271132 0.874699 0.574602 -0.748784 0.330388 20 227 25
0.505126 -1.621784 0.796183 0.574602 -0.748784 0.330388 53 111 248
0.816524 -1.580152 0.348963 0.794656 -0.577348 0.187595 212 244 236
1.179796 -1.080148 0.348963 0.794656 -0.577348 0.187595 1 192 170
0.916928 -1.271132 0.874699 0.794656 -0.577348 0.187595 20 227 25
1.179796 -1.080148 0.348963 0.889697 -0.315095 0.330385 1 192 170
1.123165 -0.771135 0.796178 0.889697 -0.315095 0.330385 38 243 210
0.916928 -1.271132 0.874699 0.889697 -0.315095 0.330385 20 227 25
0.816524 0.037882 0.348963 0.306569 0.943522 0.125629 17 242 37
0.228738 0.228865 0.348963 0.306569 0.943522 0.125629 0 241 2
0.505126 0.079514 0.796183 0.306569 0.943522 0.125629 25 54 37
0.816524 0.037882 0.348963 0.303531 0.934171 -0.187597 143 178 248
0.491607 0.037877 -0.176775 0.303531 0.934171 -0.187597 255 255 255
0.228738 0.228865 0.348963 0.303531 0.934171 -0.187597 255 255 255
0.491607 0.037877 -0.176775 0.024747 0.943521 -0.330386 255 255 255
-0.047650 0.079514 -0.098257 0.024747 0.943521 -0.330386 193 254 143
0.228738 0.228865 0.348963 0.024747 0.943521 -0.330386 213 241 214
-0.359047 0.037882 0.348963 -0.802609 0.583126 0.125627 255 255 255
-0.722319 -0.462122 0.348963 -0.802609 0.583126 0.125627 56 67 34
-0.494869 -0.245410 0.796182 -0.802609 0.583126 0.125627 247 253 255
-0.359047 0.037882 0.348963 -0.794656 0.577348 -0.187595 255 255 255
-0.459451 -0.271138 -0.176774 -0.794656 0.577348 -0.187595 202 238 243
-0.722319 -0.462122 0.348963 -0.794656 0.577348 -0.187595 56 67 34
-0.459451 -0.271138 -0.176774 -0.889697 0.315095 -0.330385 82 53 21
-0.665688 -0.771135 -0.098253 -0.889697 0.315095 -0.330385 255 255 255
-0.722319 -0.462122 0.348963 -0.889697 0.315095 -0.330385 56 67 34
-0.722319 -1.080148 0.348963 -0.802609 -0.583126 0.125627 255 255 255
-0.359047 -1.580152 0.348963 -0.802609 -0.583126 0.125627 243 252 255
-0.494869 -1.296860 0.796182 -0.802609 -0.583126 0.125627 74 125 1
-0.722319 -1.080148 0.348963 -0.794656 -0.577348 -0.187595 255 255 255
-0.459451 -1.271132 -0.176774 -0.794656 -0.577348 -0.187595 255 255 255
-0.359047 -1.580152 0.348963 -0.794656 -0.577348 -0.187595 255 255 255
-0.459451 -1.271132 -0.176774 -0.574602 -0.748783 -0.330388 255 255 255
-0.047650 -1.621784 -0.098257 -0.574602 -0.748783 -0.330388 255 255 255
-0.359047 -1.580152 0.348963 -0.574602 -0.748783 -0.330388 243 252 255
0.228738 -1.771135 0.348963 0.306569 -0.943522 0.125629 198 252 252
0.816524 -1.580152 0.348963 0.306569 -0.943522 0.125629 212 244 236
0.505126 -1.621784 0.796183 0.306569 -0.943522 0.125629 53 111 248
0.228738 -1.771135 0.348963 0.303531 -0.934171 -0.187597 255 255 255
0.491607 -1.580147 -0.176775 0.303531 -0.934171 -0.187597 255 255 255
0.816524 -1.580152 0.348963 0.303531 -0.934171 -0.187597 255 255 255
0.491607 -1.580147 -0.176775 0.534576 -0.777865 -0.330387 255 255 255
0.952346 -1.296860 -0.098257 0.534576 -0.777865 -0.330387 3 150 188
0.816524 -1.580152 0.348963 0.534576 -0.777865 -0.330387 212 244 236
1.179796 -1.080148 0.348963 0.992077 0.000000 0.125628 1 192 170
1.179796 -0.462122 0.348963 0.992077 0.000000 0.125628 205 247 172
1.123165 -0.771135 0.796178 0.992077 0.000000 0.125628 38 243 210
1.179796 -1.080148 0.348963 0.982246 0.000000 -0.187599 1 192 170
1.079386 -0.771135 -0.176773 0.982246 0.000000 -0.187599 177 220 249
1.179796 -0.462122 0.348963 0.982246 0.000000 -0.187599 205 247 172
1.079386 -0.771135 -0.176773 0.904989 0.268032 -0.330385 177 220 249
0.952346 -0.245410 -0.098257 0.904989 0.268032 -0.330385 81 174 108
1.179796 -0.462122 0.348963 0.904989 0.268032 -0.330385 205 247 172
0.654061 -0.462124 -0.501692 0.471300 0.583122 -0.661699 255 255 255
0.491607 0.037877 -0.176775 0.471300 0.583122 -0.661699 255 255 255
0.952346 -0.245410 -0.098257 0.471300 0.583122 -0.661699 255 255 255
0.654061 -0.462124 -0.501692 0.187594 0.577345 -0.794658 255 255 255
0.066283 -0.271140 -0.501692 0.187594 0.577345 -0.794658 255 255 255
0.491607 0.037877 -0.176775 0.187594 0.577345 -0.794658 255 255 255
0.066283 -0.271140 -0.501692 -0.038530 0.748779 -0.661699 255 255 255
-0.047650 0.079514 -0.098257 -0.038530 0.748779 -0.661699 193 254 143
0.491607 0.037877 -0.176775 -0.038530 0.748779 -0.661699 255 255 255
0.066283 -0.271140 -0.501692 -0.408946 0.628425 -0.661698 255 255 255
-0.459451 -0.271138 -0.176774 -0.408946 0.628425 -0.661698 82 53 21
-0.047650 0.079514 -0.098257 -0.408946 0.628425 -0.661698 193 254 143
0.066283 -0.271140 -0.501692 -0.491119 0.356821 -0.794657 255 255 255
-0.296991 -0.771135 -0.501689 -0.491119 0.356821 -0.794657 255 255 255
-0.459451 -0.271138 -0.176774 -0.491119 0.356821 -0.794657 82 53 21
-0.296991 -0.771135 -0.501689 -0.724042 0.194736 -0.661695 255 255 255
-0.665688 -0.771135 -0.098253 -0.724042 0.194736 -0.661695 255 255 255
-0.459451 -0.271138 -0.176774 -0.724042 0.194736 -0.661695 82 53 21
-0.296991 -0.771135 -0.501689 -0.724042 -0.194736 -0.661695 255 255 255
-0.459451 -1.271132 -0.176774 -0.724042 -0.194736 -0.661695 255 255 255
-0.665688 -0.771135 -0.098253 -0.724042 -0.194736 -0.661695 255 255 255
-0.296991 -0.771135 -0.501689 -0.491119 -0.356821 -0.794657 255 255 255
0.066283 -1.271130 -0.501692 -0.491119 -0.356821 -0.794657 255 255 255
-0.459451 -1.271132 -0.176774 -0.491119 -0.356821 -0.794657 255 255 255
0.066283 -1.271130 -0.501692 -0.408946 -0.628425 -0.661698 255 255 255
-0.047650 -1.621784 -0.098257 -0.408946 -0.628425 -0.661698 255 255 255
-0.459451 -1.271132 -0.176774 -0.408946 -0.628425 -0.661698 255 255 255
1.079386 -0.771135 -0.176773 0.700224 0.268032 -0.661699 255 255 255
0.654061 -0.462124 -0.501692 0.700224 0.268032 -0.661699 255 255 255
0.952346 -0.245410 -0.098257 0.700224 0.268032 -0.661699 255 255 255
1.079386 -0.771135 -0.176773 0.607060 0.000000 -0.794656 255 255 255
0.654061 -1.080146 -0.501692 0.607060 0.000000 -0.794656 255 255 255
0.654061 -0.462124 -0.501692 0.607060 0.000000 -0.794656 255 255 255
0.654061 -1.080146 -0.501692 0.331305 0.000000 -0.943524 255 255 255
0.228738 -0.771135 -0.651037 0.331305 0.000000 -0.943524 255 255 255
0.654061 -0.462124 -0.501692 0.331305 0.000000 -0.943524 255 255 255
0.066283 -1.271130 -0.501692 -0.038530 -0.748779 -0.661699 255 255 255
0.491607 -1.580147 -0.176775 -0.038530 -0.748779 -0.661699 255 255 255
-0.047650 -1.621784 -0.098257 -0.038530 -0.748779 -0.661699 255 255 255
0.066283 -1.271130 -0.501692 0.187594 -0.577345 -0.794658 255 255 255
0.654061 -1.080146 -0.501692 0.187594 -0.577345 -0.794658 255 255 255
0.491607 -1.580147 -0.176775 0.187594 -0.577345 -0.794658 255 255 255
0.654061 -1.080146 -0.501692 0.471300 -0.583122 -0.661699 255 255 255
0.952346 -1.296860 -0.098257 0.471300 -0.583122 -0.661699 255 255 255
0.491607 -1.580147 -0.176775 0.471300 -0.583122 -0.661699 255 255 255
3 0 1 2
3 3 4 5
3 6 7 8
3 9 10 11
3 12 13 14
3 15 16 17
3 18 19 20
3 21 22 23
3 24 25 26
3 27 28 29
3 30 31 32
3 33 34 35
3 36 37 38
3 39 40 41
3 42 43 44
3 45 46 47
3 48 49 50
3 51 52 53
3 54 55 56
3 57 58 59
3 60 61 62
3 63 64 65
3 66 67 68
3 69 70 71
3 72 73 74
3 75 76 77
3 78 79 80
3 81 82 83
3 84 85 86
3 87 88 89
3 90 91 92
3 93 94 95
3 96 97 98
3 99 100 101
3 102 103 104
3 105 106 107
3 108 109 110
3 111 112 113
3 114 115 116
3 117 118 119
3 120 121 122
3 123 124 125
3 126 127 128
3 129 130 131
3 132 133 134
3 135 136 137
3 138 139 140
3 141 142 143
3 144 145 146
3 147 148 149
3 150 151 152
3 153 154 155
3 156 157 158
3 159 160 161
3 162 163 164
3 165 166 167
3 168 169 170
3 171 172 173
3 174 175 176
3 177 178 179
3 180 181 182
3 183 184 185
3 186 187 188
3 189 190 191
3 192 193 194
3 195 196 197
3 198 199 200
3 201 202 203
3 204 205 206
3 207 208 209
3 210 211 212
3 213 214 215
3 216 217 218
3 219 220 221
3 222 223 224
3 225 226 227
3 228 229 230
3 231 232 233
3 234 235 236
3 237 238 239
